<svg width="178" height="48" viewBox="0 0 178 48" fill="none" xmlns="http://www.w3.org/2000/svg">
<path d="M7.10316 30.18C5.44716 30.18 4.15716 29.754 3.23316 28.902C2.32116 28.05 1.83516 26.862 1.77516 25.338C1.76316 24.99 1.75716 24.432 1.75716 23.664C1.75716 22.896 1.76316 22.338 1.77516 21.99C1.82316 20.502 2.31516 19.338 3.25116 18.498C4.18716 17.646 5.47116 17.22 7.10316 17.22C8.20716 17.22 9.15516 17.412 9.94716 17.796C10.7512 18.168 11.3572 18.636 11.7652 19.2C12.1732 19.752 12.3892 20.298 12.4132 20.838C12.4132 20.946 12.3772 21.036 12.3052 21.108C12.2332 21.18 12.1372 21.216 12.0172 21.216H10.1272C10.0072 21.216 9.91716 21.192 9.85716 21.144C9.79716 21.096 9.74316 21.018 9.69516 20.91C9.52716 20.466 9.23316 20.088 8.81316 19.776C8.39316 19.464 7.82316 19.308 7.10316 19.308C6.26316 19.308 5.60316 19.536 5.12316 19.992C4.65516 20.436 4.40916 21.132 4.38516 22.08C4.37316 22.428 4.36716 22.956 4.36716 23.664C4.36716 24.36 4.37316 24.888 4.38516 25.248C4.40916 26.22 4.66116 26.94 5.14116 27.408C5.62116 27.864 6.28116 28.092 7.12116 28.092C7.97316 28.092 8.65716 27.864 9.17316 27.408C9.68916 26.952 9.94716 26.268 9.94716 25.356V24.798H7.75116C7.63116 24.798 7.52916 24.756 7.44516 24.672C7.36116 24.588 7.31916 24.486 7.31916 24.366V23.376C7.31916 23.256 7.36116 23.154 7.44516 23.07C7.52916 22.986 7.63116 22.944 7.75116 22.944H12.0712C12.2032 22.944 12.3112 22.986 12.3952 23.07C12.4792 23.154 12.5212 23.256 12.5212 23.376V25.284C12.5212 26.28 12.2992 27.15 11.8552 27.894C11.4112 28.626 10.7812 29.19 9.96516 29.586C9.14916 29.982 8.19516 30.18 7.10316 30.18ZM18.6443 30.18C17.3003 30.18 16.2323 29.796 15.4403 29.028C14.6603 28.26 14.2463 27.168 14.1983 25.752L14.1803 25.302C14.1803 23.802 14.5703 22.62 15.3503 21.756C16.1423 20.892 17.2343 20.46 18.6263 20.46C20.0543 20.46 21.1523 20.892 21.9203 21.756C22.7003 22.62 23.0903 23.772 23.0903 25.212V25.59C23.0903 25.71 23.0483 25.812 22.9643 25.896C22.8803 25.98 22.7723 26.022 22.6403 26.022H16.6643V26.166C16.6883 26.838 16.8683 27.396 17.2043 27.84C17.5523 28.272 18.0263 28.488 18.6263 28.488C19.3103 28.488 19.8683 28.212 20.3003 27.66C20.4083 27.528 20.4923 27.45 20.5523 27.426C20.6123 27.39 20.7143 27.372 20.8583 27.372H22.4423C22.5503 27.372 22.6403 27.402 22.7123 27.462C22.7963 27.522 22.8383 27.606 22.8383 27.714C22.8383 28.002 22.6643 28.344 22.3163 28.74C21.9803 29.124 21.4943 29.46 20.8583 29.748C20.2223 30.036 19.4843 30.18 18.6443 30.18ZM20.6063 24.492V24.456C20.6063 23.748 20.4263 23.184 20.0663 22.764C19.7183 22.332 19.2383 22.116 18.6263 22.116C18.0143 22.116 17.5343 22.332 17.1863 22.764C16.8383 23.184 16.6643 23.748 16.6643 24.456V24.492H20.6063ZM29.2133 30C28.1213 30 27.2993 29.718 26.7473 29.154C26.1953 28.578 25.9193 27.738 25.9193 26.634V22.566H24.4973C24.3773 22.566 24.2753 22.524 24.1913 22.44C24.1073 22.356 24.0653 22.254 24.0653 22.134V21.072C24.0653 20.952 24.1073 20.85 24.1913 20.766C24.2753 20.682 24.3773 20.64 24.4973 20.64H25.9193V17.652C25.9193 17.52 25.9613 17.418 26.0453 17.346C26.1293 17.262 26.2313 17.22 26.3513 17.22H27.8453C27.9773 17.22 28.0793 17.262 28.1513 17.346C28.2353 17.418 28.2773 17.52 28.2773 17.652V20.64H30.5273C30.6473 20.64 30.7493 20.682 30.8333 20.766C30.9173 20.85 30.9593 20.952 30.9593 21.072V22.134C30.9593 22.254 30.9173 22.356 30.8333 22.44C30.7493 22.524 30.6473 22.566 30.5273 22.566H28.2773V26.436C28.2773 26.952 28.3673 27.342 28.5473 27.606C28.7273 27.87 29.0213 28.002 29.4293 28.002H30.6893C30.8213 28.002 30.9233 28.044 30.9953 28.128C31.0793 28.2 31.1213 28.302 31.1213 28.434V29.568C31.1213 29.688 31.0793 29.79 30.9953 29.874C30.9233 29.958 30.8213 30 30.6893 30H29.2133ZM41.421 30.18C40.341 30.18 39.417 30.018 38.649 29.694C37.881 29.37 37.299 28.944 36.903 28.416C36.507 27.888 36.297 27.312 36.273 26.688C36.273 26.592 36.309 26.508 36.381 26.436C36.453 26.352 36.543 26.31 36.651 26.31H38.289C38.421 26.31 38.529 26.34 38.613 26.4C38.697 26.46 38.775 26.544 38.847 26.652C38.967 27.06 39.237 27.402 39.657 27.678C40.089 27.954 40.677 28.092 41.421 28.092C42.261 28.092 42.891 27.954 43.311 27.678C43.743 27.39 43.959 27 43.959 26.508C43.959 26.184 43.851 25.914 43.635 25.698C43.419 25.482 43.089 25.296 42.645 25.14C42.213 24.972 41.565 24.774 40.701 24.546C39.285 24.21 38.247 23.766 37.587 23.214C36.927 22.662 36.597 21.87 36.597 20.838C36.597 20.142 36.789 19.524 37.173 18.984C37.557 18.432 38.103 18 38.811 17.688C39.531 17.376 40.365 17.22 41.313 17.22C42.309 17.22 43.167 17.394 43.887 17.742C44.619 18.09 45.171 18.528 45.543 19.056C45.927 19.572 46.131 20.088 46.155 20.604C46.155 20.7 46.119 20.79 46.047 20.874C45.975 20.946 45.885 20.982 45.777 20.982H44.067C43.803 20.982 43.623 20.874 43.527 20.658C43.467 20.274 43.233 19.956 42.825 19.704C42.417 19.44 41.913 19.308 41.313 19.308C40.653 19.308 40.131 19.434 39.747 19.686C39.375 19.938 39.189 20.304 39.189 20.784C39.189 21.108 39.285 21.378 39.477 21.594C39.669 21.81 39.969 22.002 40.377 22.17C40.785 22.326 41.379 22.506 42.159 22.71C43.227 22.95 44.073 23.22 44.697 23.52C45.333 23.82 45.801 24.198 46.101 24.654C46.401 25.11 46.551 25.692 46.551 26.4C46.551 27.18 46.335 27.858 45.903 28.434C45.483 28.998 44.883 29.43 44.103 29.73C43.335 30.03 42.441 30.18 41.421 30.18ZM52.6274 30C51.5354 30 50.7134 29.718 50.1614 29.154C49.6094 28.578 49.3334 27.738 49.3334 26.634V22.566H47.9114C47.7914 22.566 47.6894 22.524 47.6054 22.44C47.5214 22.356 47.4794 22.254 47.4794 22.134V21.072C47.4794 20.952 47.5214 20.85 47.6054 20.766C47.6894 20.682 47.7914 20.64 47.9114 20.64H49.3334V17.652C49.3334 17.52 49.3754 17.418 49.4594 17.346C49.5434 17.262 49.6454 17.22 49.7654 17.22H51.2594C51.3914 17.22 51.4934 17.262 51.5654 17.346C51.6494 17.418 51.6914 17.52 51.6914 17.652V20.64H53.9414C54.0614 20.64 54.1634 20.682 54.2474 20.766C54.3314 20.85 54.3734 20.952 54.3734 21.072V22.134C54.3734 22.254 54.3314 22.356 54.2474 22.44C54.1634 22.524 54.0614 22.566 53.9414 22.566H51.6914V26.436C51.6914 26.952 51.7814 27.342 51.9614 27.606C52.1414 27.87 52.4354 28.002 52.8434 28.002H54.1034C54.2354 28.002 54.3374 28.044 54.4094 28.128C54.4934 28.2 54.5354 28.302 54.5354 28.434V29.568C54.5354 29.688 54.4934 29.79 54.4094 29.874C54.3374 29.958 54.2354 30 54.1034 30H52.6274ZM58.8494 30.18C58.2374 30.18 57.6734 30.06 57.1574 29.82C56.6534 29.568 56.2514 29.232 55.9514 28.812C55.6634 28.392 55.5194 27.93 55.5194 27.426C55.5194 26.61 55.8494 25.95 56.5094 25.446C57.1694 24.942 58.0754 24.6 59.2274 24.42L61.6934 24.06V23.682C61.6934 23.166 61.5614 22.776 61.2974 22.512C61.0334 22.248 60.6134 22.116 60.0374 22.116C59.6414 22.116 59.3234 22.188 59.0834 22.332C58.8434 22.476 58.6454 22.626 58.4894 22.782C58.3454 22.926 58.2494 23.022 58.2014 23.07C58.1534 23.214 58.0634 23.286 57.9314 23.286H56.5274C56.4194 23.286 56.3234 23.25 56.2394 23.178C56.1674 23.106 56.1314 23.01 56.1314 22.89C56.1434 22.59 56.2874 22.254 56.5634 21.882C56.8514 21.498 57.2894 21.168 57.8774 20.892C58.4654 20.604 59.1914 20.46 60.0554 20.46C61.4714 20.46 62.5034 20.778 63.1514 21.414C63.7994 22.05 64.1234 22.884 64.1234 23.916V29.568C64.1234 29.688 64.0814 29.79 63.9974 29.874C63.9254 29.958 63.8234 30 63.6914 30H62.1974C62.0774 30 61.9754 29.958 61.8914 29.874C61.8074 29.79 61.7654 29.688 61.7654 29.568V28.866C61.5014 29.25 61.1294 29.568 60.6494 29.82C60.1694 30.06 59.5694 30.18 58.8494 30.18ZM59.4614 28.452C60.1214 28.452 60.6614 28.236 61.0814 27.804C61.5014 27.372 61.7114 26.748 61.7114 25.932V25.572L59.9114 25.86C58.5314 26.076 57.8414 26.538 57.8414 27.246C57.8414 27.63 57.9974 27.93 58.3094 28.146C58.6334 28.35 59.0174 28.452 59.4614 28.452ZM66.8641 30C66.7441 30 66.6421 29.958 66.5581 29.874C66.4741 29.79 66.4321 29.688 66.4321 29.568V21.09C66.4321 20.958 66.4741 20.85 66.5581 20.766C66.6421 20.682 66.7441 20.64 66.8641 20.64H68.3401C68.4721 20.64 68.5801 20.682 68.6641 20.766C68.7481 20.85 68.7901 20.958 68.7901 21.09V21.828C69.3901 21.036 70.2541 20.64 71.3821 20.64H72.1381C72.2701 20.64 72.3721 20.682 72.4441 20.766C72.5281 20.838 72.5701 20.94 72.5701 21.072V22.386C72.5701 22.506 72.5281 22.608 72.4441 22.692C72.3721 22.776 72.2701 22.818 72.1381 22.818H70.7161C70.1521 22.818 69.7081 22.98 69.3841 23.304C69.0601 23.628 68.8981 24.072 68.8981 24.636V29.568C68.8981 29.688 68.8561 29.79 68.7721 29.874C68.6881 29.958 68.5861 30 68.4661 30H66.8641ZM78.2212 30C77.1292 30 76.3072 29.718 75.7552 29.154C75.2032 28.578 74.9272 27.738 74.9272 26.634V22.566H73.5052C73.3852 22.566 73.2832 22.524 73.1992 22.44C73.1152 22.356 73.0732 22.254 73.0732 22.134V21.072C73.0732 20.952 73.1152 20.85 73.1992 20.766C73.2832 20.682 73.3852 20.64 73.5052 20.64H74.9272V17.652C74.9272 17.52 74.9692 17.418 75.0532 17.346C75.1372 17.262 75.2392 17.22 75.3592 17.22H76.8532C76.9852 17.22 77.0872 17.262 77.1592 17.346C77.2432 17.418 77.2852 17.52 77.2852 17.652V20.64H79.5352C79.6552 20.64 79.7572 20.682 79.8412 20.766C79.9252 20.85 79.9672 20.952 79.9672 21.072V22.134C79.9672 22.254 79.9252 22.356 79.8412 22.44C79.7572 22.524 79.6552 22.566 79.5352 22.566H77.2852V26.436C77.2852 26.952 77.3752 27.342 77.5552 27.606C77.7352 27.87 78.0292 28.002 78.4372 28.002H79.6972C79.8292 28.002 79.9312 28.044 80.0032 28.128C80.0872 28.2 80.1292 28.302 80.1292 28.434V29.568C80.1292 29.688 80.0872 29.79 80.0032 29.874C79.9312 29.958 79.8292 30 79.6972 30H78.2212ZM85.7751 30.18C84.4311 30.18 83.3631 29.796 82.5711 29.028C81.7911 28.26 81.3771 27.168 81.3291 25.752L81.3111 25.302C81.3111 23.802 81.7011 22.62 82.4811 21.756C83.2731 20.892 84.3651 20.46 85.7571 20.46C87.1851 20.46 88.2831 20.892 89.0511 21.756C89.8311 22.62 90.2211 23.772 90.2211 25.212V25.59C90.2211 25.71 90.1791 25.812 90.0951 25.896C90.0111 25.98 89.9031 26.022 89.7711 26.022H83.7951V26.166C83.8191 26.838 83.9991 27.396 84.3351 27.84C84.6831 28.272 85.1571 28.488 85.7571 28.488C86.4411 28.488 86.9991 28.212 87.4311 27.66C87.5391 27.528 87.6231 27.45 87.6831 27.426C87.7431 27.39 87.8451 27.372 87.9891 27.372H89.5731C89.6811 27.372 89.7711 27.402 89.8431 27.462C89.9271 27.522 89.9691 27.606 89.9691 27.714C89.9691 28.002 89.7951 28.344 89.4471 28.74C89.1111 29.124 88.6251 29.46 87.9891 29.748C87.3531 30.036 86.6151 30.18 85.7751 30.18ZM87.7371 24.492V24.456C87.7371 23.748 87.5571 23.184 87.1971 22.764C86.8491 22.332 86.3691 22.116 85.7571 22.116C85.1451 22.116 84.6651 22.332 84.3171 22.764C83.9691 23.184 83.7951 23.748 83.7951 24.456V24.492H87.7371ZM95.6054 30.18C94.3934 30.18 93.4634 29.796 92.8154 29.028C92.1674 28.248 91.8134 27.21 91.7534 25.914L91.7354 25.32L91.7534 24.726C91.8014 23.454 92.1494 22.428 92.7974 21.648C93.4574 20.856 94.3934 20.46 95.6054 20.46C96.7574 20.46 97.6754 20.856 98.3594 21.648V17.652C98.3594 17.52 98.4014 17.418 98.4854 17.346C98.5694 17.262 98.6714 17.22 98.7914 17.22H100.357C100.489 17.22 100.591 17.262 100.663 17.346C100.747 17.418 100.789 17.52 100.789 17.652V29.568C100.789 29.688 100.747 29.79 100.663 29.874C100.591 29.958 100.489 30 100.357 30H98.8994C98.7794 30 98.6774 29.958 98.5934 29.874C98.5094 29.79 98.4674 29.688 98.4674 29.568V28.902C97.8074 29.754 96.8534 30.18 95.6054 30.18ZM96.2894 28.236C96.9734 28.236 97.4774 28.02 97.8014 27.588C98.1374 27.144 98.3234 26.598 98.3594 25.95C98.3714 25.806 98.3774 25.578 98.3774 25.266C98.3774 24.942 98.3714 24.708 98.3594 24.564C98.3354 23.964 98.1494 23.454 97.8014 23.034C97.4534 22.614 96.9494 22.404 96.2894 22.404C95.0054 22.404 94.3214 23.196 94.2374 24.78L94.2194 25.32L94.2374 25.86C94.3214 27.444 95.0054 28.236 96.2894 28.236Z" fill="#08082A"/>
<rect x="130" width="48" height="48" rx="10" fill="#08082A"/>
<path d="M157 15H161C161.53 15 162.039 15.2107 162.414 15.5858C162.789 15.9609 163 16.4696 163 17V31C163 31.5304 162.789 32.0391 162.414 32.4142C162.039 32.7893 161.53 33 161 33H157" stroke="white" stroke-width="1.5" stroke-linecap="round" stroke-linejoin="round"/>
<path d="M152 29L157 24L152 19" stroke="white" stroke-width="1.5" stroke-linecap="round" stroke-linejoin="round"/>
<path d="M157 24H145" stroke="white" stroke-width="1.5" stroke-linecap="round" stroke-linejoin="round"/>
</svg>
