<svg width="220" height="241" viewBox="0 0 220 241" fill="none" xmlns="http://www.w3.org/2000/svg">
<g opacity="0.35">
<mask id="mask0_2_160" style="mask-type:alpha" maskUnits="userSpaceOnUse" x="0" y="-111" width="459" height="352">
<path d="M120.966 241C113.601 241 106.493 240.83 99.6805 240.489C62.277 238.619 34.9201 231.79 18.3698 220.19C1.43681 208.326 -3.66715 191.677 3.19736 170.704C24.0397 107.034 44.491 67.5721 58.0232 41.4618C64.1141 29.7093 68.9255 20.4254 71.5417 13.129L71.9272 13.2684L71.5417 13.129C75.8939 0.985527 94.6066 -15.1356 120.375 -28.9466C148.107 -43.8074 177.801 -52.807 201.847 -53.6353C235.011 -54.778 271.042 -64.3271 295.427 -72.1375C323.834 -81.2355 353.271 -93.4363 374.171 -104.776C387.662 -112.097 401.478 -112.346 414.122 -105.498C436.014 -93.6386 451.572 -62.0799 454.724 -23.14C456.217 -4.68433 457.761 14.4029 458.108 32.8203C458.494 53.1842 457.324 70.5163 454.535 85.8063C451.203 104.062 445.539 119.968 437.22 134.427C427.93 150.569 415.56 164.572 399.401 177.235C371.803 198.862 295.591 222.112 214.07 233.777C180.72 238.551 148.979 241 120.966 241ZM395.155 -109.628C388.345 -109.628 381.412 -107.769 374.562 -104.052C353.618 -92.6873 324.129 -80.4646 295.678 -71.3529C271.244 -63.5261 235.134 -53.9579 201.874 -52.8124C177.951 -51.9868 148.385 -43.0255 120.761 -28.2194C95.1643 -14.5013 76.5992 1.45027 72.3127 13.4105C69.6773 20.7617 64.8549 30.0647 58.7504 41.8445C45.2291 67.9329 24.7996 107.357 3.97649 170.963C-2.76227 191.551 2.2378 207.889 18.84 219.523C35.2618 231.03 62.4738 237.81 99.7215 239.674C132.387 241.309 171.888 238.991 213.952 232.971C295.348 221.325 371.399 198.143 398.895 176.595C414.969 163.998 427.271 150.075 436.509 134.022C444.781 119.645 450.416 103.827 453.729 85.6642C459.948 51.5877 456.875 13.6347 453.907 -23.069C450.779 -61.7355 435.385 -93.0427 413.731 -104.771C407.755 -108.01 401.506 -109.628 395.155 -109.628Z" fill="#7456AB"/>
</mask>
<g mask="url(#mask0_2_160)">
<path d="M120.966 241C113.601 241 106.493 240.83 99.6805 240.489C62.277 238.619 34.9201 231.79 18.3698 220.19C1.43681 208.326 -3.66715 191.677 3.19736 170.704C24.0397 107.034 44.491 67.5721 58.0232 41.4618C64.1141 29.7093 68.9255 20.4254 71.5417 13.129L71.9272 13.2684L71.5417 13.129C75.8939 0.985527 94.6066 -15.1356 120.375 -28.9466C148.107 -43.8074 177.801 -52.807 201.847 -53.6353C235.011 -54.778 271.042 -64.3271 295.427 -72.1375C323.834 -81.2355 353.271 -93.4363 374.171 -104.776C387.662 -112.097 401.478 -112.346 414.122 -105.498C436.014 -93.6386 451.572 -62.0799 454.724 -23.14C456.217 -4.68433 457.761 14.4029 458.108 32.8203C458.494 53.1842 457.324 70.5163 454.535 85.8063C451.203 104.062 445.539 119.968 437.22 134.427C427.93 150.569 415.56 164.572 399.401 177.235C371.803 198.862 295.591 222.112 214.07 233.777C180.72 238.551 148.979 241 120.966 241ZM395.155 -109.628C388.345 -109.628 381.412 -107.769 374.562 -104.052C353.618 -92.6873 324.129 -80.4646 295.678 -71.3529C271.244 -63.5261 235.134 -53.9579 201.874 -52.8124C177.951 -51.9868 148.385 -43.0255 120.761 -28.2194C95.1643 -14.5013 76.5992 1.45027 72.3127 13.4105C69.6773 20.7617 64.8549 30.0647 58.7504 41.8445C45.2291 67.9329 24.7996 107.357 3.97649 170.963C-2.76227 191.551 2.2378 207.889 18.84 219.523C35.2618 231.03 62.4738 237.81 99.7215 239.674C132.387 241.309 171.888 238.991 213.952 232.971C295.348 221.325 371.399 198.143 398.895 176.595C414.969 163.998 427.271 150.075 436.509 134.022C444.781 119.645 450.416 103.827 453.729 85.6642C459.948 51.5877 456.875 13.6347 453.907 -23.069C450.779 -61.7355 435.385 -93.0427 413.731 -104.771C407.755 -108.01 401.506 -109.628 395.155 -109.628Z" fill="#A06BFF"/>
</g>
<mask id="mask1_2_160" style="mask-type:alpha" maskUnits="userSpaceOnUse" x="17" y="-99" width="422" height="327">
<path d="M125.526 227.194C119.7 227.194 114.057 227.077 108.617 226.839C74.3083 225.338 49.215 219.267 34.0289 208.791C18.6787 198.2 13.9384 183.298 19.939 164.498C37.6457 107.581 56.1369 69.8083 68.3706 44.8162C74.1142 33.0828 78.6495 23.8153 81.2548 16.4259C85.4703 4.48206 102.819 -11.043 126.532 -24.0941C151.923 -38.0691 179.55 -46.6723 202.331 -47.7002C232.922 -48.9031 266.107 -57.5008 288.557 -64.4992C314.932 -72.7224 341.327 -83.2967 360.975 -93.5155C373.375 -99.9618 386.054 -99.9809 397.645 -93.5702C417.766 -82.4437 432.069 -53.4083 434.97 -17.79C437.739 15.8108 440.604 50.5571 434.737 82.4739C431.648 99.2839 426.421 113.945 418.758 127.294C410.213 142.185 398.851 155.116 384.034 166.827C358.659 187.016 288.576 208.908 213.608 220.068C181.981 224.77 151.898 227.194 125.526 227.194ZM379.668 -97.5888C373.602 -97.5888 367.435 -96.0033 361.333 -92.8321C341.647 -82.5941 315.206 -71.998 288.789 -63.7639C266.293 -56.7517 233.039 -48.1376 202.366 -46.9293C179.701 -45.9068 152.196 -37.3392 126.906 -23.4188C103.352 -10.4553 86.1401 4.91129 81.9847 16.6829C79.3658 24.1161 74.8195 33.3999 69.0677 45.1552C56.8422 70.1282 38.3701 107.865 20.6799 164.73C14.794 183.172 19.4333 197.782 34.4718 208.156C49.5348 218.548 74.4942 224.573 108.655 226.068C138.675 227.383 174.93 225.04 213.501 219.299C288.349 208.159 358.279 186.333 383.561 166.218C398.304 154.569 409.6 141.709 418.097 126.906C425.716 113.633 430.913 99.0543 433.986 82.329C439.833 50.5134 436.974 15.819 434.207 -17.7326C431.326 -53.0967 417.176 -81.897 397.276 -92.9004C391.617 -96.0251 385.693 -97.5888 379.668 -97.5888Z" fill="#7456AB"/>
</mask>
<g mask="url(#mask1_2_160)">
<path d="M125.526 227.194C119.7 227.194 114.057 227.077 108.617 226.839C74.3083 225.338 49.215 219.267 34.0289 208.791C18.6787 198.2 13.9384 183.298 19.939 164.498C37.6457 107.581 56.1369 69.8083 68.3706 44.8162C74.1142 33.0828 78.6495 23.8153 81.2548 16.4259C85.4703 4.48206 102.819 -11.043 126.532 -24.0941C151.923 -38.0691 179.55 -46.6723 202.331 -47.7002C232.922 -48.9031 266.107 -57.5008 288.557 -64.4992C314.932 -72.7224 341.327 -83.2967 360.975 -93.5155C373.375 -99.9618 386.054 -99.9809 397.645 -93.5702C417.766 -82.4437 432.069 -53.4083 434.97 -17.79C437.739 15.8108 440.604 50.5571 434.737 82.4739C431.648 99.2839 426.421 113.945 418.758 127.294C410.213 142.185 398.851 155.116 384.034 166.827C358.659 187.016 288.576 208.908 213.608 220.068C181.981 224.77 151.898 227.194 125.526 227.194ZM379.668 -97.5888C373.602 -97.5888 367.435 -96.0033 361.333 -92.8321C341.647 -82.5941 315.206 -71.998 288.789 -63.7639C266.293 -56.7517 233.039 -48.1376 202.366 -46.9293C179.701 -45.9068 152.196 -37.3392 126.906 -23.4188C103.352 -10.4553 86.1401 4.91129 81.9847 16.6829C79.3658 24.1161 74.8195 33.3999 69.0677 45.1552C56.8422 70.1282 38.3701 107.865 20.6799 164.73C14.794 183.172 19.4333 197.782 34.4718 208.156C49.5348 218.548 74.4942 224.573 108.655 226.068C138.675 227.383 174.93 225.04 213.501 219.299C288.349 208.159 358.279 186.333 383.561 166.218C398.304 154.569 409.6 141.709 418.097 126.906C425.716 113.633 430.913 99.0543 433.986 82.329C439.833 50.5134 436.974 15.819 434.207 -17.7326C431.326 -53.0967 417.176 -81.897 397.276 -92.9004C391.617 -96.0251 385.693 -97.5888 379.668 -97.5888Z" fill="#A06BFF"/>
</g>
<mask id="mask2_2_160" style="mask-type:alpha" maskUnits="userSpaceOnUse" x="34" y="-87" width="385" height="301">
<path d="M130.135 213.416C125.821 213.416 121.624 213.342 117.548 213.195C86.3341 212.066 63.5016 206.748 49.6851 197.396C35.9179 188.079 31.5438 174.922 36.686 158.29C51.3746 107.758 67.3207 73.0395 78.9639 47.6919C84.2482 36.1882 88.42 27.1012 90.9761 19.7172C95.1177 7.7925 110.714 -6.77305 132.696 -19.2473C155.756 -32.3338 181.316 -40.5406 202.823 -41.7681C253.606 -44.059 317.335 -67.2387 347.784 -82.258C359.094 -87.8295 370.641 -87.619 381.183 -81.6457C399.529 -71.2519 412.572 -44.737 415.224 -12.4456C417.67 16.5871 420.44 49.4935 414.947 79.1331C412.099 94.4969 407.312 107.914 400.308 120.153C392.503 133.792 382.156 145.651 368.676 156.411C357.057 165.818 335.649 175.641 306.769 184.813C279.03 193.624 245.779 201.273 213.148 206.355C183.246 211.008 154.837 213.416 130.135 213.416ZM364.165 -85.5632C358.848 -85.5632 353.448 -84.2482 348.101 -81.6129C317.6 -66.5662 253.748 -43.3455 202.859 -41.0491C181.461 -39.8271 156.015 -31.6531 133.049 -18.6212C111.217 -6.23175 95.741 8.1889 91.654 19.9523C89.087 27.3691 84.9071 36.4698 79.6145 47.9927C67.9823 73.3211 52.0499 108.013 37.3722 158.497C32.3339 174.796 36.6122 187.68 50.087 196.8C63.7914 206.076 86.4954 211.349 117.573 212.473C144.946 213.463 177.959 211.101 213.034 205.638C245.631 200.562 278.841 192.921 306.548 184.121C335.34 174.977 356.666 165.201 368.219 155.846C381.631 145.143 391.921 133.349 399.677 119.793C406.639 107.624 411.402 94.2809 414.234 78.9991C419.71 49.4552 416.943 16.598 414.499 -12.3882C411.866 -44.4417 398.963 -70.7406 380.822 -81.0196C375.483 -84.0486 369.87 -85.5632 364.165 -85.5632Z" fill="#7456AB"/>
</mask>
<g mask="url(#mask2_2_160)">
<path d="M130.135 213.416C125.821 213.416 121.624 213.342 117.548 213.195C86.3341 212.066 63.5016 206.748 49.6851 197.396C35.9179 188.079 31.5438 174.922 36.686 158.29C51.3746 107.758 67.3207 73.0395 78.9639 47.6919C84.2482 36.1882 88.42 27.1012 90.9761 19.7172C95.1177 7.7925 110.714 -6.77305 132.696 -19.2473C155.756 -32.3338 181.316 -40.5406 202.823 -41.7681C253.606 -44.059 317.335 -67.2387 347.784 -82.258C359.094 -87.8295 370.641 -87.619 381.183 -81.6457C399.529 -71.2519 412.572 -44.737 415.224 -12.4456C417.67 16.5871 420.44 49.4935 414.947 79.1331C412.099 94.4969 407.312 107.914 400.308 120.153C392.503 133.792 382.156 145.651 368.676 156.411C357.057 165.818 335.649 175.641 306.769 184.813C279.03 193.624 245.779 201.273 213.148 206.355C183.246 211.008 154.837 213.416 130.135 213.416ZM364.165 -85.5632C358.848 -85.5632 353.448 -84.2482 348.101 -81.6129C317.6 -66.5662 253.748 -43.3455 202.859 -41.0491C181.461 -39.8271 156.015 -31.6531 133.049 -18.6212C111.217 -6.23175 95.741 8.1889 91.654 19.9523C89.087 27.3691 84.9071 36.4698 79.6145 47.9927C67.9823 73.3211 52.0499 108.013 37.3722 158.497C32.3339 174.796 36.6122 187.68 50.087 196.8C63.7914 206.076 86.4954 211.349 117.573 212.473C144.946 213.463 177.959 211.101 213.034 205.638C245.631 200.562 278.841 192.921 306.548 184.121C335.34 174.977 356.666 165.201 368.219 155.846C381.631 145.143 391.921 133.349 399.677 119.793C406.639 107.624 411.402 94.2809 414.234 78.9991C419.71 49.4552 416.943 16.598 414.499 -12.3882C411.866 -44.4417 398.963 -70.7406 380.822 -81.0196C375.483 -84.0486 369.87 -85.5632 364.165 -85.5632Z" fill="#A06BFF"/>
</g>
<mask id="mask3_2_160" style="mask-type:alpha" maskUnits="userSpaceOnUse" x="51" y="-75" width="348" height="275">
<path d="M134.804 199.676C131.963 199.676 129.186 199.641 126.463 199.567C98.3435 198.807 77.7746 194.25 65.325 186.021C53.146 177.97 49.1437 166.554 53.4276 152.089C65.2183 107.474 79.475 74.1195 89.8852 49.7671C94.3713 39.2721 98.2451 30.2096 100.692 23.0143C104.7 11.281 118.967 -2.70228 138.853 -14.3946C159.591 -26.5873 183.085 -34.4031 203.309 -35.8329C223.436 -36.8799 248.162 -41.5109 274.825 -49.2256C296.225 -55.4176 318.008 -63.3538 334.591 -70.9974C344.81 -75.6995 355.231 -75.2566 364.725 -69.7125C381.289 -60.0432 393.069 -36.0516 395.469 -7.09817C398.096 23.2905 399.884 50.5052 395.149 75.798C392.544 89.7157 388.192 101.892 381.847 113.021C374.785 125.405 365.45 136.195 353.306 146.004C342.732 154.744 323.333 163.888 297.206 172.448C272.212 180.636 242.189 187.814 212.667 192.661C184.52 197.273 157.806 199.676 134.804 199.676ZM348.642 -73.5562C344.08 -73.5562 339.457 -72.5037 334.87 -70.3932C318.259 -62.7359 296.441 -54.7861 275.011 -48.5859C248.299 -40.8575 223.52 -36.2156 203.35 -35.1686C183.233 -33.7443 159.845 -25.964 139.194 -13.8205C119.443 -2.20747 105.285 11.6446 101.329 23.2276C98.8738 30.4475 94.9946 39.5209 90.503 50.0268C80.101 74.3601 65.8553 107.688 54.0755 152.267C49.8819 166.425 53.7912 177.59 65.6967 185.458C78.0425 193.618 98.4938 198.137 126.485 198.894C151.217 199.559 180.983 197.175 212.566 191.989C242.055 187.147 272.042 179.979 297.004 171.8C323.052 163.268 342.374 154.164 352.888 145.474C364.968 135.717 374.25 124.99 381.27 112.679C387.577 101.616 391.904 89.5079 394.496 75.6668C399.214 50.4587 397.429 23.2932 394.808 -7.04898C392.424 -35.7864 380.77 -59.5784 364.392 -69.1385C359.348 -72.08 354.042 -73.5562 348.642 -73.5562Z" fill="#7456AB"/>
</mask>
<g mask="url(#mask3_2_160)">
<path d="M134.804 199.676C131.963 199.676 129.186 199.641 126.463 199.567C98.3435 198.807 77.7746 194.25 65.325 186.021C53.146 177.97 49.1437 166.554 53.4276 152.089C65.2183 107.474 79.475 74.1195 89.8852 49.7671C94.3713 39.2721 98.2451 30.2096 100.692 23.0143C104.7 11.281 118.967 -2.70228 138.853 -14.3946C159.591 -26.5873 183.085 -34.4031 203.309 -35.8329C223.436 -36.8799 248.162 -41.5109 274.825 -49.2256C296.225 -55.4176 318.008 -63.3538 334.591 -70.9974C344.81 -75.6995 355.231 -75.2566 364.725 -69.7125C381.289 -60.0432 393.069 -36.0516 395.469 -7.09817C398.096 23.2905 399.884 50.5052 395.149 75.798C392.544 89.7157 388.192 101.892 381.847 113.021C374.785 125.405 365.45 136.195 353.306 146.004C342.732 154.744 323.333 163.888 297.206 172.448C272.212 180.636 242.189 187.814 212.667 192.661C184.52 197.273 157.806 199.676 134.804 199.676ZM348.642 -73.5562C344.08 -73.5562 339.457 -72.5037 334.87 -70.3932C318.259 -62.7359 296.441 -54.7861 275.011 -48.5859C248.299 -40.8575 223.52 -36.2156 203.35 -35.1686C183.233 -33.7443 159.845 -25.964 139.194 -13.8205C119.443 -2.20747 105.285 11.6446 101.329 23.2276C98.8738 30.4475 94.9946 39.5209 90.503 50.0268C80.101 74.3601 65.8553 107.688 54.0755 152.267C49.8819 166.425 53.7912 177.59 65.6967 185.458C78.0425 193.618 98.4938 198.137 126.485 198.894C151.217 199.559 180.983 197.175 212.566 191.989C242.055 187.147 272.042 179.979 297.004 171.8C323.052 163.268 342.374 154.164 352.888 145.474C364.968 135.717 374.25 124.99 381.27 112.679C387.577 101.616 391.904 89.5079 394.496 75.6668C399.214 50.4587 397.429 23.2932 394.808 -7.04898C392.424 -35.7864 380.77 -59.5784 364.392 -69.1385C359.348 -72.08 354.042 -73.5562 348.642 -73.5562Z" fill="#A06BFF"/>
</g>
<mask id="mask4_2_160" style="mask-type:alpha" maskUnits="userSpaceOnUse" x="68" y="-63" width="311" height="249">
<path d="M139.55 185.985C138.136 185.985 136.742 185.975 135.362 185.953C110.337 185.564 92.0286 181.764 80.9459 174.657C70.358 167.866 66.7303 158.186 70.1694 145.881C79.1553 106.58 91.9412 74.1522 101.277 50.475C104.979 41.0872 108.177 32.9788 110.405 26.3057C114.342 14.586 126.955 1.51853 145.009 -9.54779C163.443 -20.8465 184.868 -28.2659 203.794 -29.9007C241.304 -32.167 291.047 -46.9595 321.395 -59.7426C330.534 -63.5808 339.832 -62.9029 348.282 -57.7825C363.052 -48.8321 373.566 -27.3665 375.718 -1.75927V-1.76197C378.028 24.1487 379.737 49.3213 375.354 72.4518C372.992 84.9205 369.078 95.8556 363.391 105.875C357.074 117.007 348.749 126.723 337.945 135.583C328.415 143.656 311.02 152.128 287.647 160.077C265.396 167.645 238.597 174.353 212.186 178.968C185.808 183.574 160.808 185.985 139.55 185.985ZM333.093 -61.5742C329.298 -61.5742 325.455 -60.776 321.638 -59.174C291.244 -46.3717 241.416 -31.5547 203.843 -29.2856C185.018 -27.659 163.692 -20.2724 145.337 -9.02016C127.404 1.97235 114.888 14.9195 110.998 26.5025C108.765 33.1893 105.564 41.3059 101.859 50.7019C92.5289 74.36 79.754 106.763 70.7735 146.034C67.4137 158.06 70.9512 167.508 81.2849 174.135C92.2692 181.179 110.468 184.947 135.375 185.332C157.464 185.668 183.99 183.263 212.082 178.353C238.461 173.744 265.227 167.046 287.45 159.487C310.752 151.562 328.076 143.131 337.552 135.104C348.301 126.293 356.576 116.632 362.855 105.569C368.509 95.6096 372.399 84.7374 374.75 72.337C379.119 49.2858 377.41 24.1597 375.106 -1.70457V-1.70731C372.97 -27.1205 362.574 -48.4029 347.967 -57.2521C343.216 -60.1281 338.197 -61.5742 333.093 -61.5742Z" fill="#7456AB"/>
</mask>
<g mask="url(#mask4_2_160)">
<path d="M139.55 185.985C138.136 185.985 136.742 185.975 135.362 185.953C110.337 185.564 92.0286 181.764 80.9459 174.657C70.358 167.866 66.7303 158.186 70.1694 145.881C79.1553 106.58 91.9412 74.1522 101.277 50.475C104.979 41.0872 108.177 32.9788 110.405 26.3057C114.342 14.586 126.955 1.51853 145.009 -9.54779C163.443 -20.8465 184.868 -28.2659 203.794 -29.9007C241.304 -32.167 291.047 -46.9595 321.395 -59.7426C330.534 -63.5808 339.832 -62.9029 348.282 -57.7825C363.052 -48.8321 373.566 -27.3665 375.718 -1.75927V-1.76197C378.028 24.1487 379.737 49.3213 375.354 72.4518C372.992 84.9205 369.078 95.8556 363.391 105.875C357.074 117.007 348.749 126.723 337.945 135.583C328.415 143.656 311.02 152.128 287.647 160.077C265.396 167.645 238.597 174.353 212.186 178.968C185.808 183.574 160.808 185.985 139.55 185.985ZM333.093 -61.5742C329.298 -61.5742 325.455 -60.776 321.638 -59.174C291.244 -46.3717 241.416 -31.5547 203.843 -29.2856C185.018 -27.659 163.692 -20.2724 145.337 -9.02016C127.404 1.97235 114.888 14.9195 110.998 26.5025C108.765 33.1893 105.564 41.3059 101.859 50.7019C92.5289 74.36 79.754 106.763 70.7735 146.034C67.4137 158.06 70.9512 167.508 81.2849 174.135C92.2692 181.179 110.468 184.947 135.375 185.332C157.464 185.668 183.99 183.263 212.082 178.353C238.461 173.744 265.227 167.046 287.45 159.487C310.752 151.562 328.076 143.131 337.552 135.104C348.301 126.293 356.576 116.632 362.855 105.569C368.509 95.6096 372.399 84.7374 374.75 72.337C379.119 49.2858 377.41 24.1597 375.106 -1.70457V-1.70731C372.97 -27.1205 362.574 -48.4029 347.967 -57.2521C343.216 -60.1281 338.197 -61.5742 333.093 -61.5742Z" fill="#A06BFF"/>
</g>
<mask id="mask5_2_160" style="mask-type:alpha" maskUnits="userSpaceOnUse" x="86" y="-51" width="273" height="224">
<path d="M144.402 172.366C144.35 172.366 144.298 172.366 144.247 172.366C122.316 172.352 106.269 169.31 96.5531 163.325C87.5562 157.787 84.314 149.829 86.9165 139.675C93.0976 104.976 104.79 72.5887 113.328 48.9415C116.001 41.5357 118.311 35.1414 120.129 29.5973C123.937 18.0553 135.255 5.55379 151.174 -4.70059C167.322 -15.1026 186.683 -22.1284 204.288 -23.971C220.497 -25.1192 239.606 -28.4817 261.096 -33.9602C277.261 -38.0827 294.432 -43.378 308.21 -48.4902C316.275 -51.4673 324.454 -50.5515 331.871 -45.8384C344.84 -37.5988 354.075 -18.662 355.972 3.58272C357.978 25.2451 359.597 48.1487 355.565 69.1113C353.443 80.1339 349.969 89.8224 344.938 98.7372C339.364 108.614 332.051 117.261 322.584 125.167C305.761 139.853 261.192 155.982 211.689 165.299C187.115 169.925 163.853 172.366 144.402 172.366ZM317.497 -49.6275C314.481 -49.6275 311.433 -49.0698 308.404 -47.9517C294.61 -42.834 277.414 -37.5305 261.233 -33.4052C239.713 -27.9186 220.568 -24.5533 204.335 -23.4024C186.825 -21.568 167.557 -14.5777 151.48 -4.22218C135.668 5.96386 124.438 18.3561 120.668 29.775C118.847 35.3246 116.537 41.7243 113.861 49.1329C105.328 72.7609 93.6471 105.121 87.4715 139.793C84.9345 149.697 88.0921 157.442 96.8511 162.836C106.477 168.763 122.423 171.778 144.247 171.792C144.298 171.792 144.35 171.792 144.402 171.792C163.82 171.792 187.044 169.353 211.582 164.733C260.995 155.433 305.452 139.356 322.212 124.727C331.63 116.862 338.899 108.267 344.441 98.4501C349.438 89.5927 352.894 79.9589 355.004 68.9992C359.023 48.1104 357.404 25.2534 355.403 3.62921V3.62647C353.52 -18.446 344.386 -37.2161 331.565 -45.36C327.09 -48.1977 322.333 -49.6275 317.497 -49.6275Z" fill="#7456AB"/>
</mask>
<g mask="url(#mask5_2_160)">
<path d="M144.402 172.366C144.35 172.366 144.298 172.366 144.247 172.366C122.316 172.352 106.269 169.31 96.5531 163.325C87.5562 157.787 84.314 149.829 86.9165 139.675C93.0976 104.976 104.79 72.5887 113.328 48.9415C116.001 41.5357 118.311 35.1414 120.129 29.5973C123.937 18.0553 135.255 5.55379 151.174 -4.70059C167.322 -15.1026 186.683 -22.1284 204.288 -23.971C220.497 -25.1192 239.606 -28.4817 261.096 -33.9602C277.261 -38.0827 294.432 -43.378 308.21 -48.4902C316.275 -51.4673 324.454 -50.5515 331.871 -45.8384C344.84 -37.5988 354.075 -18.662 355.972 3.58272C357.978 25.2451 359.597 48.1487 355.565 69.1113C353.443 80.1339 349.969 89.8224 344.938 98.7372C339.364 108.614 332.051 117.261 322.584 125.167C305.761 139.853 261.192 155.982 211.689 165.299C187.115 169.925 163.853 172.366 144.402 172.366ZM317.497 -49.6275C314.481 -49.6275 311.433 -49.0698 308.404 -47.9517C294.61 -42.834 277.414 -37.5305 261.233 -33.4052C239.713 -27.9186 220.568 -24.5533 204.335 -23.4024C186.825 -21.568 167.557 -14.5777 151.48 -4.22218C135.668 5.96386 124.438 18.3561 120.668 29.775C118.847 35.3246 116.537 41.7243 113.861 49.1329C105.328 72.7609 93.6471 105.121 87.4715 139.793C84.9345 149.697 88.0921 157.442 96.8511 162.836C106.477 168.763 122.423 171.778 144.247 171.792C144.298 171.792 144.35 171.792 144.402 171.792C163.82 171.792 187.044 169.353 211.582 164.733C260.995 155.433 305.452 139.356 322.212 124.727C331.63 116.862 338.899 108.267 344.441 98.4501C349.438 89.5927 352.894 79.9589 355.004 68.9992C359.023 48.1104 357.404 25.2534 355.403 3.62921V3.62647C353.52 -18.446 344.386 -37.2161 331.565 -45.36C327.09 -48.1977 322.333 -49.6275 317.497 -49.6275Z" fill="#A06BFF"/>
</g>
<mask id="mask6_2_160" style="mask-type:alpha" maskUnits="userSpaceOnUse" x="103" y="-39" width="236" height="198">
<path d="M149.312 158.858C132.407 158.858 119.908 156.57 112.127 152.046C104.73 147.743 101.878 141.501 103.653 133.489C106.766 102.635 118.035 68.6217 126.264 43.7827C127.554 39.8843 128.773 36.2046 129.842 32.8913C133.585 21.3438 143.347 9.71712 157.33 0.148911C171.431 -9.49584 188.279 -15.9558 204.772 -18.0389C216.175 -19.0012 247.772 -22.7929 295.017 -37.2327C302.018 -39.3541 309.096 -38.195 315.485 -33.8729C326.628 -26.3359 334.572 -9.93599 336.218 8.92432C337.932 26.579 339.452 46.9866 335.767 65.7704C331.874 85.6231 322.535 101.643 307.218 114.751C299.765 121.504 286.373 128.639 268.497 135.386C251.471 141.81 231.648 147.439 211.172 151.663C190.026 156.023 169.947 158.5 153.104 158.823C151.819 158.847 150.553 158.858 149.312 158.858ZM301.84 -37.7412C299.626 -37.7412 297.393 -37.405 295.17 -36.7324C287.611 -34.4224 272.255 -29.9308 254.344 -25.8165C235.538 -21.4944 218.881 -18.7032 204.83 -17.5195C188.427 -15.4473 171.661 -9.02018 157.628 0.580837C143.741 10.0834 134.05 21.6145 130.343 33.0526C129.274 36.3659 128.054 40.0483 126.764 43.9494C118.541 68.7694 107.28 102.758 104.175 133.56L104.169 133.59C102.442 141.362 105.208 147.42 112.393 151.597C120.545 156.338 134.621 158.659 153.098 158.303C169.911 157.981 189.955 155.509 211.071 151.154C231.52 146.936 251.318 141.316 268.319 134.902C286.135 128.18 299.467 121.077 306.879 114.366C322.109 101.334 331.39 85.4071 335.261 65.6775C338.932 46.962 337.415 26.5982 335.704 8.98172V8.97898C334.072 -9.73097 326.215 -25.9805 315.198 -33.4328C310.968 -36.295 306.441 -37.7412 301.84 -37.7412Z" fill="#7456AB"/>
</mask>
<g mask="url(#mask6_2_160)">
<path d="M149.312 158.858C132.407 158.858 119.908 156.57 112.127 152.046C104.73 147.743 101.878 141.501 103.653 133.489C106.766 102.635 118.035 68.6217 126.264 43.7827C127.554 39.8843 128.773 36.2046 129.842 32.8913C133.585 21.3438 143.347 9.71712 157.33 0.148911C171.431 -9.49584 188.279 -15.9558 204.772 -18.0389C216.175 -19.0012 247.772 -22.7929 295.017 -37.2327C302.018 -39.3541 309.096 -38.195 315.485 -33.8729C326.628 -26.3359 334.572 -9.93599 336.218 8.92432C337.932 26.579 339.452 46.9866 335.767 65.7704C331.874 85.6231 322.535 101.643 307.218 114.751C299.765 121.504 286.373 128.639 268.497 135.386C251.471 141.81 231.648 147.439 211.172 151.663C190.026 156.023 169.947 158.5 153.104 158.823C151.819 158.847 150.553 158.858 149.312 158.858ZM301.84 -37.7412C299.626 -37.7412 297.393 -37.405 295.17 -36.7324C287.611 -34.4224 272.255 -29.9308 254.344 -25.8165C235.538 -21.4944 218.881 -18.7032 204.83 -17.5195C188.427 -15.4473 171.661 -9.02018 157.628 0.580837C143.741 10.0834 134.05 21.6145 130.343 33.0526C129.274 36.3659 128.054 40.0483 126.764 43.9494C118.541 68.7694 107.28 102.758 104.175 133.56L104.169 133.59C102.442 141.362 105.208 147.42 112.393 151.597C120.545 156.338 134.621 158.659 153.098 158.303C169.911 157.981 189.955 155.509 211.071 151.154C231.52 146.936 251.318 141.316 268.319 134.902C286.135 128.18 299.467 121.077 306.879 114.366C322.109 101.334 331.39 85.4071 335.261 65.6775C338.932 46.962 337.415 26.5982 335.704 8.98172V8.97898C334.072 -9.73097 326.215 -25.9805 315.198 -33.4328C310.968 -36.295 306.441 -37.7412 301.84 -37.7412Z" fill="#A06BFF"/>
</g>
<mask id="mask7_2_160" style="mask-type:alpha" maskUnits="userSpaceOnUse" x="120" y="-27" width="199" height="173">
<path d="M154.733 145.52C142.729 145.52 133.456 143.932 127.669 140.853C121.857 137.762 119.41 133.202 120.394 127.297C119.511 99.5926 133.56 55.1605 139.558 36.1826C147.095 12.4835 174.113 -7.3746 205.259 -12.1068C230.019 -14.6328 259.202 -21.0243 276.638 -24.8407C278.488 -25.2453 280.227 -25.6253 281.832 -25.9752C287.789 -27.2519 293.784 -25.8276 299.161 -21.8636C308.448 -15.0182 315.077 -1.1744 316.466 14.2687C318.087 29.9578 319.148 46.6503 315.971 62.4324C312.581 79.2724 304.694 92.9796 291.854 104.338C279.235 116.326 247.359 129.568 210.647 138.07C192.995 142.157 176.155 144.673 161.948 145.345C159.449 145.463 157.041 145.52 154.733 145.52ZM286.077 -25.9561C284.697 -25.9561 283.314 -25.8084 281.93 -25.5132C280.326 -25.166 278.59 -24.786 276.739 -24.3787C259.295 -20.5596 230.095 -14.1626 205.319 -11.6366C174.354 -6.93173 147.494 12.7925 140.009 36.3275C134.014 55.2863 119.976 99.6855 120.867 127.308V127.332L120.865 127.357C119.908 133.051 122.272 137.453 127.89 140.441C134.717 144.071 146.488 145.605 161.929 144.878C176.109 144.208 192.921 141.698 210.543 137.617C247.176 129.131 278.967 115.935 291.537 103.997C320.05 78.7749 319.255 45.8684 315.999 14.3234V14.3207C314.621 -0.991219 308.062 -14.7093 298.882 -21.4754C294.867 -24.4443 290.503 -25.9561 286.077 -25.9561Z" fill="#7456AB"/>
</mask>
<g mask="url(#mask7_2_160)">
<path d="M154.733 145.52C142.729 145.52 133.456 143.932 127.669 140.853C121.857 137.762 119.41 133.202 120.394 127.297C119.511 99.5926 133.56 55.1605 139.558 36.1826C147.095 12.4835 174.113 -7.3746 205.259 -12.1068C230.019 -14.6328 259.202 -21.0243 276.638 -24.8407C278.488 -25.2453 280.227 -25.6253 281.832 -25.9752C287.789 -27.2519 293.784 -25.8276 299.161 -21.8636C308.448 -15.0182 315.077 -1.1744 316.466 14.2687C318.087 29.9578 319.148 46.6503 315.971 62.4324C312.581 79.2724 304.694 92.9796 291.854 104.338C279.235 116.326 247.359 129.568 210.647 138.07C192.995 142.157 176.155 144.673 161.948 145.345C159.449 145.463 157.041 145.52 154.733 145.52ZM286.077 -25.9561C284.697 -25.9561 283.314 -25.8084 281.93 -25.5132C280.326 -25.166 278.59 -24.786 276.739 -24.3787C259.295 -20.5596 230.095 -14.1626 205.319 -11.6366C174.354 -6.93173 147.494 12.7925 140.009 36.3275C134.014 55.2863 119.976 99.6855 120.867 127.308V127.332L120.865 127.357C119.908 133.051 122.272 137.453 127.89 140.441C134.717 144.071 146.488 145.605 161.929 144.878C176.109 144.208 192.921 141.698 210.543 137.617C247.176 129.131 278.967 115.935 291.537 103.997C320.05 78.7749 319.255 45.8684 315.999 14.3234V14.3207C314.621 -0.991219 308.062 -14.7093 298.882 -21.4754C294.867 -24.4443 290.503 -25.9561 286.077 -25.9561Z" fill="#A06BFF"/>
</g>
<mask id="mask8_2_160" style="mask-type:alpha" maskUnits="userSpaceOnUse" x="135" y="-15" width="163" height="148">
<path d="M160.37 132.499C153.033 132.499 147.15 131.624 143.191 129.842C138.929 127.92 136.893 124.987 137.139 121.124C134.777 113.584 135.217 100.727 138.443 82.9085C140.794 69.9258 144.741 54.0973 149.277 39.4798C156.59 16.0322 177.7 -1.03207 205.748 -6.16883C215.579 -7.4127 225.812 -8.90805 235.708 -10.3542C248.507 -12.2241 260.596 -13.9874 268.65 -14.7146C275.43 -15.2996 282.092 -11.8879 287.409 -5.11083C292.45 1.31354 295.84 10.324 296.717 19.6134C299.104 40.874 297.682 51.8802 296.179 59.0946C293.298 72.9165 286.857 84.3109 276.493 93.9256C265.916 104.623 240.497 116.362 210.158 124.552C190.778 129.779 173.312 132.499 160.37 132.499ZM270.142 -14.3592C269.659 -14.3592 269.175 -14.3373 268.688 -14.2963C260.645 -13.5719 248.565 -11.8086 235.771 -9.93868C225.872 -8.49252 215.636 -6.9999 205.814 -5.75603C177.935 -0.649338 156.945 16.3055 149.681 39.6C145.152 54.2038 141.207 70.0133 138.858 82.9796C135.638 100.76 135.201 113.565 137.554 121.031L137.565 121.069L137.563 121.108C137.311 124.795 139.263 127.603 143.364 129.454C154.217 134.35 179.769 132.313 210.046 124.139C240.317 115.968 265.665 104.273 276.198 93.6194C286.501 84.0621 292.898 72.7416 295.763 59.0071C298.615 45.3327 297.546 30.7946 296.294 19.6572V19.6544C295.427 10.4443 292.067 1.51309 287.075 -4.85113C282.234 -11.024 276.269 -14.3592 270.142 -14.3592Z" fill="#7456AB"/>
</mask>
<g mask="url(#mask8_2_160)">
<path d="M160.37 132.499C153.033 132.499 147.15 131.624 143.191 129.842C138.929 127.92 136.893 124.987 137.139 121.124C134.777 113.584 135.217 100.727 138.443 82.9085C140.794 69.9258 144.741 54.0973 149.277 39.4798C156.59 16.0322 177.7 -1.03207 205.748 -6.16883C215.579 -7.4127 225.812 -8.90805 235.708 -10.3542C248.507 -12.2241 260.596 -13.9874 268.65 -14.7146C275.43 -15.2996 282.092 -11.8879 287.409 -5.11083C292.45 1.31354 295.84 10.324 296.717 19.6134C299.104 40.874 297.682 51.8802 296.179 59.0946C293.298 72.9165 286.857 84.3109 276.493 93.9256C265.916 104.623 240.497 116.362 210.158 124.552C190.778 129.779 173.312 132.499 160.37 132.499ZM270.142 -14.3592C269.659 -14.3592 269.175 -14.3373 268.688 -14.2963C260.645 -13.5719 248.565 -11.8086 235.771 -9.93868C225.872 -8.49252 215.636 -6.9999 205.814 -5.75603C177.935 -0.649338 156.945 16.3055 149.681 39.6C145.152 54.2038 141.207 70.0133 138.858 82.9796C135.638 100.76 135.201 113.565 137.554 121.031L137.565 121.069L137.563 121.108C137.311 124.795 139.263 127.603 143.364 129.454C154.217 134.35 179.769 132.313 210.046 124.139C240.317 115.968 265.665 104.273 276.198 93.6194C286.501 84.0621 292.898 72.7416 295.763 59.0071C298.615 45.3327 297.546 30.7946 296.294 19.6572V19.6544C295.427 10.4443 292.067 1.51309 287.075 -4.85113C282.234 -11.024 276.269 -14.3592 270.142 -14.3592Z" fill="#A06BFF"/>
</g>
<mask id="mask9_2_160" style="mask-type:alpha" maskUnits="userSpaceOnUse" x="149" y="-4" width="130" height="125">
<path d="M166.464 120.088C163.429 120.088 160.868 119.812 158.88 119.246C155.974 118.415 154.299 116.982 153.902 114.984C148.407 110.749 148.768 96.3749 150.042 85.0434C151.48 72.2631 154.826 56.4618 158.992 42.7684C162.593 30.9885 168.09 21.8085 175.802 14.7007C183.678 7.44254 193.632 2.55728 206.235 -0.239372C225.319 -3.35041 244.644 -4.61068 255.476 -3.45156C260.749 -2.8638 265.883 0.553437 269.932 6.16588C273.718 11.4175 276.282 18.2656 276.963 24.9551C279.197 42.6208 279.415 65.2373 261.129 83.5071C252.665 92.8456 233.54 103.155 209.977 111.072C192.76 116.856 176.852 120.085 166.464 120.088ZM246.047 -3.50352C235.155 -3.50352 220.664 -2.21317 206.309 0.126945C193.783 2.90446 183.886 7.76239 176.059 14.9741C168.397 22.0354 162.932 31.1608 159.353 42.875C151.562 68.4658 144.81 107.676 154.187 114.727L154.244 114.771L154.258 114.842C154.599 116.725 156.19 118.084 158.984 118.882C167.71 121.375 187.681 118.169 209.863 110.714C233.368 102.816 252.436 92.5477 260.864 83.2446C279.041 65.0842 278.819 42.5743 276.597 24.9934V24.9879C275.921 18.3612 273.385 11.576 269.634 6.37635C265.648 0.848658 260.607 -2.51115 255.44 -3.08798C252.777 -3.36682 249.603 -3.50352 246.047 -3.50352Z" fill="#7456AB"/>
</mask>
<g mask="url(#mask9_2_160)">
<path d="M166.464 120.088C163.429 120.088 160.868 119.812 158.88 119.246C155.974 118.415 154.299 116.982 153.902 114.984C148.407 110.749 148.768 96.3749 150.042 85.0434C151.48 72.2631 154.826 56.4618 158.992 42.7684C162.593 30.9885 168.09 21.8085 175.802 14.7007C183.678 7.44254 193.632 2.55728 206.235 -0.239372C225.319 -3.35041 244.644 -4.61068 255.476 -3.45156C260.749 -2.8638 265.883 0.553437 269.932 6.16588C273.718 11.4175 276.282 18.2656 276.963 24.9551C279.197 42.6208 279.415 65.2373 261.129 83.5071C252.665 92.8456 233.54 103.155 209.977 111.072C192.76 116.856 176.852 120.085 166.464 120.088ZM246.047 -3.50352C235.155 -3.50352 220.664 -2.21317 206.309 0.126945C193.783 2.90446 183.886 7.76239 176.059 14.9741C168.397 22.0354 162.932 31.1608 159.353 42.875C151.562 68.4658 144.81 107.676 154.187 114.727L154.244 114.771L154.258 114.842C154.599 116.725 156.19 118.084 158.984 118.882C167.71 121.375 187.681 118.169 209.863 110.714C233.368 102.816 252.436 92.5477 260.864 83.2446C279.041 65.0842 278.819 42.5743 276.597 24.9934V24.9879C275.921 18.3612 273.385 11.576 269.634 6.37635C265.648 0.848658 260.607 -2.51115 255.44 -3.08798C252.777 -3.36682 249.603 -3.50352 246.047 -3.50352Z" fill="#A06BFF"/>
</g>
<mask id="mask10_2_160" style="mask-type:alpha" maskUnits="userSpaceOnUse" x="161" y="4" width="97" height="106">
<path d="M173.776 109.342C172.467 109.342 171.447 109.175 170.767 108.828C168.582 109.145 166.753 108.47 165.329 106.829C161.16 102.029 161.234 90.0604 162.029 80.8612C162.975 69.9179 165.477 56.9051 168.716 46.0575C172.388 33.7856 176.475 25.6089 181.97 19.5509C187.828 13.0882 195.699 8.68408 206.732 5.6906C219.332 2.89122 233.299 3.72776 242.318 7.82022C250.401 11.53 256.244 22.1589 257.219 30.2919C259.781 47.0991 255.929 61.4979 245.776 73.0836C242.003 77.824 236.126 82.7666 228.315 87.7722C221.552 92.1052 213.517 96.348 205.073 100.039C191.852 105.823 179.783 109.342 173.776 109.342ZM170.821 108.491L170.868 108.516C171.518 108.863 172.508 109.027 173.785 109.027C187.005 109.027 230.912 91.2304 245.522 72.8786C255.615 61.3612 259.439 47.0526 256.891 30.3411V30.3356C255.926 22.2901 250.158 11.7787 242.176 8.11546C233.217 4.05034 219.329 3.22201 206.8 6.00499C195.835 8.97934 188.017 13.3507 182.199 19.7668C176.74 25.7893 172.675 33.9251 169.017 46.1478C165.783 56.979 163.29 69.9644 162.344 80.8886C161.554 90.0248 161.472 101.903 165.564 106.616C166.923 108.18 168.673 108.814 170.764 108.497L170.821 108.491Z" fill="#7456AB"/>
</mask>
<g mask="url(#mask10_2_160)">
<path d="M173.776 109.342C172.467 109.342 171.447 109.175 170.767 108.828C168.582 109.145 166.753 108.47 165.329 106.829C161.16 102.029 161.234 90.0604 162.029 80.8612C162.975 69.9179 165.477 56.9051 168.716 46.0575C172.388 33.7856 176.475 25.6089 181.97 19.5509C187.828 13.0882 195.699 8.68408 206.732 5.6906C219.332 2.89122 233.299 3.72776 242.318 7.82022C250.401 11.53 256.244 22.1589 257.219 30.2919C259.781 47.0991 255.929 61.4979 245.776 73.0836C242.003 77.824 236.126 82.7666 228.315 87.7722C221.552 92.1052 213.517 96.348 205.073 100.039C191.852 105.823 179.783 109.342 173.776 109.342ZM170.821 108.491L170.868 108.516C171.518 108.863 172.508 109.027 173.785 109.027C187.005 109.027 230.912 91.2304 245.522 72.8786C255.615 61.3612 259.439 47.0526 256.891 30.3411V30.3356C255.926 22.2901 250.158 11.7787 242.176 8.11546C233.217 4.05034 219.329 3.22201 206.8 6.00499C195.835 8.97934 188.017 13.3507 182.199 19.7668C176.74 25.7893 172.675 33.9251 169.017 46.1478C165.783 56.979 163.29 69.9644 162.344 80.8886C161.554 90.0248 161.472 101.903 165.564 106.616C166.923 108.18 168.673 108.814 170.764 108.497L170.821 108.491Z" fill="#A06BFF"/>
</g>
<mask id="mask11_2_160" style="mask-type:alpha" maskUnits="userSpaceOnUse" x="173" y="10" width="65" height="95">
<path d="M181.633 104.631C180.324 104.631 179.151 104.243 178.123 103.461C175.545 101.506 172.595 96.0471 173.17 81.1507C173.555 71.1643 175.521 59.2778 178.427 49.3515C181.86 37.6209 184.228 30.0866 188.121 24.4113C192.147 18.5391 197.678 14.8349 207.213 11.6309C212.468 9.86486 217.451 10.2886 222.022 12.8884C231.905 18.5145 236.782 32.4786 237.46 35.6334C238.725 41.5274 237.752 48.0803 234.565 55.1115C231.82 61.1641 227.438 67.5857 221.536 74.2042C210.868 86.1645 197.003 96.695 187.585 102.562C185.368 103.939 183.38 104.631 181.633 104.631ZM213.435 10.8326C211.44 10.8326 209.395 11.1825 207.301 11.8878C197.828 15.0727 192.336 18.7441 188.345 24.5643C184.476 30.2096 182.114 37.722 178.689 49.428C173.391 67.5256 170.198 97.1051 178.287 103.245C180.584 104.989 183.662 104.68 187.437 102.329C196.839 96.4735 210.68 85.9622 221.328 74.0211C227.211 67.4245 231.579 61.0247 234.31 54.9967C237.473 48.0201 238.441 41.5247 237.189 35.6908C236.517 32.5607 231.678 18.7004 221.883 13.1262C219.206 11.5981 216.38 10.8326 213.435 10.8326Z" fill="#7456AB"/>
</mask>
<g mask="url(#mask11_2_160)">
<path d="M181.633 104.631C180.324 104.631 179.151 104.243 178.123 103.461C175.545 101.506 172.595 96.0471 173.17 81.1507C173.555 71.1643 175.521 59.2778 178.427 49.3515C181.86 37.6209 184.228 30.0866 188.121 24.4113C192.147 18.5391 197.678 14.8349 207.213 11.6309C212.468 9.86486 217.451 10.2886 222.022 12.8884C231.905 18.5145 236.782 32.4786 237.46 35.6334C238.725 41.5274 237.752 48.0803 234.565 55.1115C231.82 61.1641 227.438 67.5857 221.536 74.2042C210.868 86.1645 197.003 96.695 187.585 102.562C185.368 103.939 183.38 104.631 181.633 104.631ZM213.435 10.8326C211.44 10.8326 209.395 11.1825 207.301 11.8878C197.828 15.0727 192.336 18.7441 188.345 24.5643C184.476 30.2096 182.114 37.722 178.689 49.428C173.391 67.5256 170.198 97.1051 178.287 103.245C180.584 104.989 183.662 104.68 187.437 102.329C196.839 96.4735 210.68 85.9622 221.328 74.0211C227.211 67.4245 231.579 61.0247 234.31 54.9967C237.473 48.0201 238.441 41.5247 237.189 35.6908C236.517 32.5607 231.678 18.7004 221.883 13.1262C219.206 11.5981 216.38 10.8326 213.435 10.8326Z" fill="#A06BFF"/>
</g>
</g>
</svg>
